<svg width="42" height="41" xmlns="http://www.w3.org/2000/svg" xmlns:xlink="http://www.w3.org/1999/xlink" xmlns:svgjs="http://svgjs.com/svgjs" viewBox="0.61 0 40.78 41"><svg xmlns="http://www.w3.org/2000/svg" width="42" height="41" viewBox="1.468 1.999 39.737 39.952" fill="#feb960"><path fill="#FEB960" paint-order="stroke fill markers" fill-rule="evenodd" d="M41.206 21.975c0 5.502-1.945 10.208-5.83 14.114-3.887 3.908-8.568 5.862-14.039 5.862-5.473 0-10.153-1.954-14.039-5.862-3.887-3.906-5.83-8.612-5.83-14.114 0-5.5 1.943-10.207 5.83-14.115C11.184 3.954 15.864 2 21.337 2c5.471 0 10.152 1.955 14.039 5.861 3.885 3.908 5.83 8.614 5.83 14.115zm-1.586 0c0-5.064-1.788-9.393-5.364-12.99-3.576-3.594-7.882-5.391-12.919-5.391-5.037 0-9.344 1.797-12.92 5.392-3.576 3.596-5.363 7.925-5.363 12.99 0 5.063 1.787 9.393 5.364 12.988 3.575 3.595 7.882 5.391 12.919 5.391 5.037 0 9.343-1.796 12.92-5.39 3.575-3.596 5.363-7.926 5.363-12.99zm-6.623-7.128c.56.562.528 1.126-.093 1.689l-13.62 13.316c-.186.188-.435.282-.745.282-.374 0-.653-.094-.84-.282l-5.317-5.345c-.56-.562-.56-1.125 0-1.688.56-.562 1.12-.562 1.68 0l4.477 4.501 12.779-12.473c.56-.562 1.12-.562 1.68 0z"/></svg></svg>