<svg width="50" height="50" xmlns="http://www.w3.org/2000/svg" xmlns:xlink="http://www.w3.org/1999/xlink" xmlns:svgjs="http://svgjs.com/svgjs" viewBox="0 0.015 50 49.97"><svg xmlns="http://www.w3.org/2000/svg" width="50" height="50" viewBox="1.255 1.472 47.951 47.922" fill="#fc5f45"><path fill="#FC5F45" paint-order="stroke fill markers" fill-rule="evenodd" d="M49.206 1.472v47.922H1.256V1.472h47.95zM3.243 3.46v9h43.975v-9H3.243zm43.975 43.948v-32.96H3.243v32.96h43.975zM16.225 9.537h3.041v-3.04h-3.04v3.04zm14.97 0h3.041v-3.04h-3.04v3.04zM18.448 21.226h1.754v15.662h-2.105V25.784h-3.86v-1.637h.351a63.745 63.745 0 0 0 2.047-.175c.35-.038.72-.252 1.11-.643.39-.388.624-.974.703-1.753v-.35zM34.06 27.77c.974 1.015 1.462 2.338 1.462 3.975 0 1.56-.547 2.863-1.638 3.915-1.092 1.052-2.379 1.578-3.86 1.578-1.56 0-2.826-.468-3.8-1.403-.976-.935-1.462-2.141-1.462-3.623v-.35h2.105v.35c0 .935.31 1.695.936 2.28.623.584 1.403.876 2.339.876 1.012 0 1.813-.369 2.397-1.11.585-.74.878-1.617.878-2.63 0-1.012-.313-1.85-.936-2.513-.625-.661-1.444-.993-2.456-.993-1.327 0-2.34.546-3.04 1.635l-.118.117h-1.754l1.637-8.415h8.07v1.987h-6.55l-.701 3.624a4.391 4.391 0 0 1 2.573-.819c1.637 0 2.942.507 3.918 1.52z"/></svg></svg>