<svg width="37" height="57" xmlns="http://www.w3.org/2000/svg" xmlns:xlink="http://www.w3.org/1999/xlink" xmlns:svgjs="http://svgjs.com/svgjs" viewBox="0.154 0 36.691 57"><svg xmlns="http://www.w3.org/2000/svg" width="37" height="57" viewBox="1.463 1.965 35.362 54.935" fill="#38c695"><path fill="#38C695" paint-order="stroke fill markers" fill-rule="evenodd" d="M34.132 29.842c1.795 2.846 2.693 5.981 2.693 9.41 0 4.832-1.738 8.98-5.21 12.447-3.475 3.469-7.632 5.201-12.471 5.201-4.841 0-8.998-1.732-12.47-5.201-3.475-3.467-5.211-7.615-5.211-12.448 0-3.428.896-6.563 2.693-9.409 1.795-2.844 4.175-4.967 7.143-6.37C8.02 15.601 6.38 10.965 6.38 9.563V1.965h25.526v7.599c0 1.09-1.64 5.726-4.918 13.907 2.966 1.404 5.346 3.527 7.143 6.371zm-21.077-7.188c2.029-.702 4.058-1.052 6.089-1.052 2.108 0 4.098.35 5.972 1.052 3.2-7.481 4.8-11.844 4.8-13.09V3.953h-9.835v13.44H18.09V3.954H8.371v5.61c0 1.014 1.56 5.376 4.684 13.091zm21.78 16.597c0-4.363-1.543-8.065-4.626-11.104-3.084-3.039-6.773-4.558-11.065-4.558-4.294 0-7.983 1.52-11.066 4.558-3.084 3.04-4.625 6.74-4.625 11.104 0 4.365 1.54 8.065 4.625 11.104 3.083 3.04 6.772 4.558 11.066 4.558 4.292 0 7.98-1.519 11.065-4.558 3.083-3.039 4.625-6.74 4.625-11.104zm-3.865 0c0 3.273-1.152 6.06-3.454 8.358-2.303 2.298-5.093 3.447-8.372 3.447s-6.07-1.149-8.372-3.447c-2.304-2.298-3.455-5.085-3.455-8.358 0-3.272 1.151-6.058 3.455-8.357 2.301-2.297 5.093-3.448 8.372-3.448s6.069 1.15 8.372 3.448c2.302 2.3 3.454 5.085 3.454 8.357zm-1.99 0c0-2.648-.957-4.947-2.869-6.896-1.914-1.947-4.236-2.922-6.967-2.922-2.734 0-5.055.975-6.967 2.922-1.914 1.949-2.869 4.248-2.869 6.896 0 2.65.955 4.95 2.869 6.896 1.912 1.949 4.233 2.922 6.967 2.922 2.731 0 5.053-.973 6.967-2.922 1.912-1.947 2.869-4.246 2.869-6.896z"/></svg></svg>