<svg width="48" height="50" xmlns="http://www.w3.org/2000/svg" xmlns:xlink="http://www.w3.org/1999/xlink" xmlns:svgjs="http://svgjs.com/svgjs" viewBox="0.141 0 47.718 50"><svg xmlns="http://www.w3.org/2000/svg" width="48" height="50" viewBox="1.308 1.007 45.846 48.039" fill="#38c695"><path fill="#38C695" paint-order="stroke fill markers" fill-rule="evenodd" d="M46.043 9.268c-.742.898-1.696 1.464-2.866 1.699v34.095H41.19V10.967a4.726 4.726 0 0 1-2.865-1.758c-.742-.937-1.111-1.992-1.111-3.163 0-1.407.486-2.597 1.462-3.574.974-.976 2.163-1.465 3.567-1.465 1.324 0 2.474.489 3.45 1.465.974.977 1.462 2.167 1.462 3.574 0 1.25-.371 2.325-1.111 3.222zm-1.755-1.055c.585-.586.877-1.307.877-2.167 0-.86-.292-1.582-.877-2.168-.584-.587-1.268-.88-2.046-.88-.86 0-1.58.293-2.164.88-.585.586-.877 1.309-.877 2.168 0 .86.292 1.581.877 2.167.585.585 1.305.879 2.164.879.778 0 1.462-.294 2.046-.88zm-34.15 32.63c.74.938 1.11 1.993 1.11 3.164 0 1.407-.487 2.599-1.461 3.574-.976.978-2.164 1.465-3.567 1.465-1.327 0-2.476-.487-3.45-1.465-.976-.975-1.462-2.167-1.462-3.574 0-1.247.369-2.322 1.11-3.222.741-.896 1.697-1.464 2.866-1.698V4.99h1.988v34.096c1.17.234 2.124.82 2.866 1.757zm-1.754 5.333c.584-.586.877-1.307.877-2.169 0-.857-.293-1.581-.877-2.167-.585-.585-1.307-.878-2.164-.878-.78 0-1.462.293-2.047.878-.584.586-.877 1.31-.877 2.167 0 .862.293 1.583.877 2.169.585.585 1.267.878 2.047.878.857 0 1.579-.293 2.164-.878zm19.765-24.313c.74.937 1.11 1.992 1.11 3.163 0 1.173-.37 2.227-1.11 3.164a4.732 4.732 0 0 1-2.866 1.758v15.114h-2.105V29.948a4.727 4.727 0 0 1-2.865-1.758c-.742-.937-1.111-1.991-1.111-3.164 0-1.171.369-2.226 1.11-3.163a4.73 4.73 0 0 1 2.866-1.758V4.991h2.105v15.114a4.735 4.735 0 0 1 2.866 1.758zm-.877 3.163c0-.78-.313-1.483-.936-2.109-.625-.624-1.327-.936-2.105-.936-.78 0-1.482.312-2.105.936-.625.626-.936 1.33-.936 2.109 0 .782.31 1.485.936 2.11.623.625 1.325.937 2.105.937.778 0 1.48-.312 2.105-.938.623-.624.936-1.327.936-2.109z"/></svg></svg>