<svg width="54" height="48" xmlns="http://www.w3.org/2000/svg" xmlns:xlink="http://www.w3.org/1999/xlink" xmlns:svgjs="http://svgjs.com/svgjs" viewBox="0.314 0 53.372 48"><svg xmlns="http://www.w3.org/2000/svg" width="54" height="48" viewBox="1.266 1.057 51.985 46.752" fill="#feb960"><path fill="#FEB960" paint-order="stroke fill markers" fill-rule="evenodd" d="M28.312 36.94v3.857l9.367 5.26-.937 1.752-9.483-5.259-9.484 5.259-.937-1.753 9.367-5.26V36.94H1.266V1.057h51.985v35.882H28.312zM3.257 34.951H51.26V3.043H3.257v31.91zM30.303 8.771l1.873.584-5.503 18.468-6.44-8.884-4.214 8.3-5.62-11.456-3.162 11.689-1.99-.468L9.813 10.29l6.206 12.507 3.98-7.715 5.972 8.3L30.303 8.77zm15.22 5.96c1.171 1.17 1.757 2.612 1.757 4.326 0 1.635-.586 3.038-1.757 4.207-1.17 1.169-2.616 1.753-4.332 1.753-1.639 0-3.044-.584-4.215-1.753-1.17-1.17-1.756-2.572-1.756-4.207 0-1.714.586-3.156 1.756-4.325 1.171-1.17 2.576-1.753 4.215-1.753 1.716 0 3.162.584 4.332 1.753zm-1.463 7.13c.82-.778 1.23-1.712 1.23-2.804 0-1.091-.41-2.025-1.23-2.806-.82-.778-1.776-1.17-2.869-1.17-1.094 0-2.03.392-2.81 1.17-.78.78-1.17 1.715-1.17 2.806 0 1.092.41 2.026 1.229 2.804.82.78 1.736 1.17 2.751 1.17 1.093 0 2.05-.39 2.869-1.17z"/></svg></svg>