<svg width="42" height="41" xmlns="http://www.w3.org/2000/svg" xmlns:xlink="http://www.w3.org/1999/xlink" xmlns:svgjs="http://svgjs.com/svgjs" viewBox="0.502 0 40.997 41"><svg xmlns="http://www.w3.org/2000/svg" width="42" height="41" viewBox="1.055 1.999 39.997 40" fill="#38c695"><path fill="#38C695" paint-order="stroke fill markers" fill-rule="evenodd" d="M41.052 21.999c0 5.522-1.953 10.234-5.86 14.14C31.288 40.047 26.574 42 21.054 42s-10.233-1.953-14.139-5.86C3.008 32.234 1.055 27.522 1.055 22c0-5.52 1.953-10.234 5.859-14.14 3.906-3.907 8.619-5.86 14.14-5.86 5.519 0 10.233 1.953 14.139 5.86 3.906 3.906 5.859 8.62 5.859 14.14zm-1.64 0c0-5.104-1.785-9.44-5.352-13.008-3.568-3.566-7.903-5.35-13.007-5.35s-9.44 1.784-13.006 5.35C4.479 12.56 2.696 16.895 2.696 22c0 5.105 1.783 9.441 5.35 13.008 3.567 3.568 7.903 5.351 13.007 5.351s9.44-1.783 13.007-5.35c3.567-3.568 5.351-7.904 5.351-13.01zm-20.897-2.5a16.6 16.6 0 0 0 3.905 1.758 11.493 11.493 0 0 1 3.945 2.149c1.198.99 1.823 2.24 1.875 3.75 0 1.458-.52 2.695-1.562 3.71-1.042 1.016-2.474 1.629-4.297 1.836v2.657h-1.796v-2.891c-2.813-.104-4.922-.937-6.328-2.5l1.328-1.485.625.547c.469.418 1.184.821 2.148 1.212.963.39 1.966.586 3.008.586 1.301 0 2.383-.325 3.242-.977.86-.65 1.289-1.497 1.289-2.539 0-1.145-.586-2.11-1.758-2.89a14.134 14.134 0 0 0-3.906-1.798 10.852 10.852 0 0 1-3.906-2.07c-1.171-.963-1.757-2.148-1.757-3.555 0-1.353.546-2.565 1.64-3.632 1.094-1.067 2.473-1.68 4.14-1.836V8.64h1.875v2.89c2.344.106 4.114.756 5.312 1.953l-1.172 1.72-.624-.47c-.418-.312-1.043-.625-1.875-.937a7.07 7.07 0 0 0-2.5-.469c-1.355 0-2.46.34-3.32 1.016-.86.678-1.29 1.51-1.29 2.5 0 1.042.587 1.928 1.759 2.656z"/></svg></svg>