<svg width="46" height="41" xmlns="http://www.w3.org/2000/svg" xmlns:xlink="http://www.w3.org/1999/xlink" xmlns:svgjs="http://svgjs.com/svgjs" viewBox="0.597 0 44.805 41"><svg xmlns="http://www.w3.org/2000/svg" width="46" height="41" viewBox="1.755 1.016 43.712 39.999" fill="#feb960"><path fill="#FEB960" paint-order="stroke fill markers" fill-rule="evenodd" d="M29.246 41.015H1.755V1.016h27.49v40zM3.004 2.265v3.75h24.992v-3.75H3.004zm0 5v25h24.992v-25H3.004zm24.992 32.501v-6.25H3.004v6.25h24.992zm-14.995-35h4.998v-1.25h-4.998v1.25zm4.374 31.874c0 .522-.183.966-.547 1.329a1.807 1.807 0 0 1-1.328.547c-.52 0-.964-.182-1.328-.547a1.804 1.804 0 0 1-.546-1.329c0-.52.182-.963.546-1.327a1.806 1.806 0 0 1 1.328-.547c.52 0 .963.182 1.328.547.364.364.547.808.547 1.327zm-1.875-.623c-.417 0-.625.207-.625.623 0 .418.208.626.625.626.416 0 .625-.208.625-.626 0-.416-.209-.623-.625-.623zm14.034-25.002h15.932v30H29.534v-30zM44.529 40.08V35.39H30.471v4.688h14.058zm0-5.626v-18.75H30.471v18.75h14.058zm-14.058-22.5v2.813h14.058v-2.812H30.471zm5.155 1.875h3.748v-.937h-3.748v.937zm3.28 23.906c0 .391-.137.723-.41.996-.274.275-.606.411-.996.411s-.723-.136-.996-.41a1.354 1.354 0 0 1-.41-.997c0-.39.137-.721.41-.996.273-.273.605-.41.996-.41.39 0 .722.137.996.41.273.275.41.607.41.996zm-1.406-.468c-.313 0-.469.157-.469.468 0 .314.156.469.47.469.311 0 .468-.155.468-.469 0-.311-.157-.468-.469-.468z"/></svg></svg>