<svg width="56" height="41" xmlns="http://www.w3.org/2000/svg" xmlns:xlink="http://www.w3.org/1999/xlink" xmlns:svgjs="http://svgjs.com/svgjs" viewBox="0 0.806 56 39.387"><svg xmlns="http://www.w3.org/2000/svg" width="56" height="41" viewBox="2 1.595 55 38.684" fill="#fc5f45"><path fill="#FC5F45" paint-order="stroke fill markers" fill-rule="evenodd" d="M49.266 40.279H2V9.33h47.266V40.28zm-1.72-29.228H3.72V38.56h43.828V11.05zM11.454 7.612H9.734V1.595H57v30.947h-6.016v-1.72h4.297V3.315H11.453v4.298zM44.97 22.226h-7.735V13.63h7.735v8.596zm-1.72-6.877h-4.296v5.158h4.297V15.35zM29.5 35.981h1.72V13.63h-1.72v22.35zM6.298 17.068h20.625V15.35H6.297v1.72zm0 4.299h18.047v-1.72H6.297v1.72zm0 4.298h18.906v-1.72H6.297v1.72z"/></svg></svg>