<svg width="56" height="44" xmlns="http://www.w3.org/2000/svg" xmlns:xlink="http://www.w3.org/1999/xlink" xmlns:svgjs="http://svgjs.com/svgjs" viewBox="0 0.118 56 43.765"><svg xmlns="http://www.w3.org/2000/svg" width="56" height="44" viewBox="2 1.015 55 42.983" fill="#b27cf5"><path fill="#B27CF5" paint-order="stroke fill markers" fill-rule="evenodd" d="M48.406 43.999H2V7.893h46.406v36.106zM3.72 9.612V32.5L14.89 21.218l12.246 13.969 8.486-5.158 11.064 9.563V9.612H3.72zM46.687 42.28v-.43l-11.279-9.671-8.701 5.158-11.816-13.539L3.719 34.864v7.415h42.968zM9.734 1.015H57v36.106h-7.734v-1.719h6.015V2.735H11.453v4.298H9.734V1.015zM31.22 19.93c0-1.434.5-2.65 1.504-3.655 1.002-1.002 2.218-1.504 3.652-1.504 1.432 0 2.649.502 3.652 1.504 1.002 1.005 1.504 2.221 1.504 3.655 0 1.433-.502 2.65-1.504 3.652-1.003 1.005-2.22 1.504-3.652 1.504-1.434 0-2.65-.499-3.652-1.504-1.004-1.001-1.504-2.219-1.504-3.652zm1.718 0c0 1.003.323 1.825.967 2.47.645.645 1.467.968 2.471.968 1.002 0 1.826-.323 2.47-.967.645-.646.967-1.468.967-2.471 0-1.004-.322-1.827-.966-2.472-.645-.645-1.469-.967-2.471-.967-1.004 0-1.826.322-2.47.967-.645.645-.968 1.468-.968 2.472z"/></svg></svg>