<svg width="41" height="41" xmlns="http://www.w3.org/2000/svg" xmlns:xlink="http://www.w3.org/1999/xlink" xmlns:svgjs="http://svgjs.com/svgjs" viewBox="0.085 0 40.83 41"><svg xmlns="http://www.w3.org/2000/svg" width="41" height="41" viewBox="1.014 1.999 39.834 40" fill="#b27cf5"><path fill="#B27CF5" paint-order="stroke fill markers" fill-rule="evenodd" d="M2.648 21.999c0 5.105 1.776 9.441 5.33 13.008 3.552 3.568 7.87 5.351 12.953 5.351 5.083 0 9.401-1.783 12.954-5.35 3.552-3.568 5.33-7.904 5.33-13.01 0-5.103-1.778-9.438-5.33-13.007-3.553-3.566-7.87-5.35-12.954-5.35-5.083 0-9.401 1.784-12.953 5.35C4.424 12.56 2.648 16.895 2.648 22zm38.2 0c0 5.522-1.945 10.234-5.835 14.14C31.123 40.047 26.43 42 20.931 42c-5.498 0-10.191-1.953-14.082-5.86C2.96 32.234 1.014 27.522 1.014 22c0-5.52 1.945-10.234 5.835-14.14 3.89-3.907 8.584-5.86 14.082-5.86 5.498 0 10.192 1.953 14.082 5.86 3.89 3.906 5.836 8.62 5.836 14.14zm-7.624-7.656l-1.323-1.329-10.97 11.173-7.624-7.812-1.323 1.327 8.947 8.829 12.293-12.188zM20.931 5.67c-.363 0-.674.13-.933.39-.26.262-.39.575-.39.938 0 .365.13.678.39.938.259.26.57.39.933.39.363 0 .674-.13.934-.39.259-.26.389-.573.389-.938 0-.363-.13-.676-.389-.937-.26-.26-.571-.391-.934-.391zm0 30c-.363 0-.674.13-.933.39a1.28 1.28 0 0 0-.39.938c0 .365.13.678.39.938.259.261.57.39.933.39.363 0 .674-.129.934-.39.259-.26.389-.573.389-.938 0-.363-.13-.676-.389-.937-.26-.26-.571-.39-.934-.39zm-14.937-15c-.364 0-.675.13-.934.39-.26.262-.389.574-.389.938 0 .365.129.678.39.938.258.26.57.39.933.39.362 0 .673-.13.933-.39s.39-.573.39-.938c0-.364-.13-.676-.39-.938-.26-.26-.571-.39-.933-.39zm29.875 0c-.363 0-.674.13-.933.39-.26.262-.39.574-.39.938 0 .365.13.678.39.938.259.26.57.39.933.39.363 0 .674-.13.934-.39.259-.26.389-.573.389-.938 0-.364-.13-.676-.39-.938-.26-.26-.57-.39-.933-.39z"/></svg></svg>